# xmcd
#
# Track frame offsets:
#	150
#	15385
#	29435
#	47907
#	64040
#	78087
#	93592
#	108800
#	126572
#	141392
#	159225
#	173257
#	188725
#	204672
#	222247
#
# Disc length: 3170 seconds
#
# Revision: 1
# Processed by: cddbd v1.5.1PL2 Copyright (c) Steve Scherf et al.
# Submitted via: audiograbber 1.83.01
#
DISCID=c50c600f
DTITLE=Music Maestro - MM6280
DYEAR=1900
DGENRE=Karaoke
TTITLE0=Dixie Chics, The - Ready To Run
TTITLE1=McBride, Martina - I Love You
TTITLE2=Wariner, Steve - I'm Already Taken
TTITLE3=Montgomery, John Michael - Home To You
TTITLE4=McGraw, Tim - Something Like That
TTITLE5=Jones, George - Choices
TTITLE6=Andrews, Jessica - You Go First Do You Wanna Kiss
TTITLE7=White, Bryan - You're Still Beautiful To Me
TTITLE8=Griggs, Andy - I'll Go Crazy
TTITLE9=McAnally, Shane - Are Your Eyes Still Blue
TTITLE10=Raye, Collin - Start Over Georgia
TTITLE11=McCann, Lila - Crush
TTITLE12=Ashton, Susan - You're Lucky I Love You
TTITLE13=Parnell, Leroy - She Won't Be Lonely Long
TTITLE14=Krauss, Alison - Forget About It
EXTD=As L:isted In KJ Pro
EXTT0=
EXTT1=
EXTT2=
EXTT3=
EXTT4=
EXTT5=
EXTT6=
EXTT7=
EXTT8=
EXTT9=
EXTT10=
EXTT11=
EXTT12=
EXTT13=
EXTT14=
PLAYORDER=
